<?xml version="1.0" standalone="no"?>
<!DOCTYPE svg PUBLIC "-//W3C//DTD SVG 20010904//EN"
 "http://www.w3.org/TR/2001/REC-SVG-20010904/DTD/svg10.dtd">
<svg version="1.0" xmlns="http://www.w3.org/2000/svg"
 width="278.000000pt" height="286.000000pt" viewBox="0 0 278.000000 286.000000"
 preserveAspectRatio="xMidYMid meet">

<g transform="translate(0.000000,286.000000) scale(0.100000,-0.100000)"
fill="#000000" stroke="none">
<path d="M936 2695 c-247 -91 -453 -168 -456 -172 -4 -5 -113 -193 -244 -420
l-237 -411 80 -459 c44 -252 84 -468 88 -480 4 -12 172 -159 373 -327 l365
-306 487 0 487 0 371 311 c203 171 370 315 370 319 0 5 36 213 80 463 44 250
80 462 80 470 0 14 -461 822 -479 840 -8 8 -900 337 -911 336 -3 0 -207 -74
-454 -164z m849 -135 c225 -77 412 -144 416 -148 21 -22 438 -745 434 -752 -3
-4 -52 -40 -109 -79 l-104 -71 -80 -202 c-43 -112 -103 -265 -132 -340 l-53
-136 -276 -160 -276 -159 -337 11 c-277 9 -340 14 -351 26 -40 42 -409 514
-417 533 -5 12 -32 155 -60 317 -28 162 -53 307 -56 321 l-5 26 -121 -38 c-67
-22 -123 -38 -125 -36 -2 3 464 661 492 695 1 1 171 77 376 167 206 90 374
165 374 165 0 0 184 -63 410 -140z"/>
<path d="M1342 2009 c-62 -10 -126 -26 -142 -34 -28 -14 -30 -19 -30 -73 0
-31 5 -106 11 -165 6 -59 9 -110 6 -113 -3 -3 -64 -9 -135 -13 -193 -10 -202
-22 -167 -208 21 -112 22 -112 198 -106 l143 6 12 -84 c6 -46 14 -114 17 -151
11 -118 47 -137 195 -102 101 23 100 22 100 196 0 134 2 148 18 148 159 5 295
20 311 35 24 20 40 85 48 183 5 67 3 80 -14 101 -22 27 -32 28 -245 16 l-118
-7 0 170 c0 94 -4 182 -10 196 -12 32 -34 32 -198 5z"/>
</g>
</svg>
